<svg xmlns="http://www.w3.org/2000/svg" width="1619.23" height="252.822" viewBox="0 0 1619.23 252.822">
  <path id="clouds-2" d="M-56.144,252.822A56.143,56.143,0,0,0,0,196.678a56.143,56.143,0,0,0-56.144-56.143H-913.826c-1.486-13.084-1.634-36.235,11.86-53.535h54.51a43.5,43.5,0,0,0,43.5-43.5A43.5,43.5,0,0,0-847.456,0H-1575.73a43.5,43.5,0,0,0-43.5,43.5,43.5,43.5,0,0,0,43.5,43.5h495.837c7.031,10,17.938,30.912,6.872,53.535h-160.252a56.143,56.143,0,0,0-56.143,56.143,56.143,56.143,0,0,0,56.143,56.144Z" transform="translate(1619.23)" fill="rgba(13,0,45,0.17)"/>
</svg>
