<svg xmlns="http://www.w3.org/2000/svg" viewBox="0 0 315.98 371.1"><defs><style>.cls-1{fill:#1d71b8;}.cls-2,.cls-4{fill:none;stroke:#009fe3;stroke-miterlimit:10;}.cls-2{stroke-width:0.25px;}.cls-3{fill:#ffed00;}.cls-4{stroke-width:0.75px;}.cls-5{fill:#1e71b8;}.cls-6{fill:#c9e8fb;}.cls-7{fill:#36a9e1;}.cls-8{fill:#fff;}.cls-9{fill:#bce4fa;}.cls-10{fill:#ffd500;}.cls-11{fill:#005bbb;}.cls-12{fill:#fefe00;}.cls-13{fill:#0059c0;}.cls-14{fill:#0053c1;}</style></defs><title>Ресурс 1</title><g id="Шар_2" data-name="Шар 2"><g id="Шар_1-2" data-name="Шар 1"><g id="_Група_" data-name="&lt;Група&gt;"><path class="cls-1" d="M301,248.38v40.5a10.2,10.2,0,0,1-20.4,0v-40.5a10.18,10.18,0,0,1,17.4-7.21A10.52,10.52,0,0,1,301,248.38Z"/><path class="cls-2" d="M290.65,299.17a10.24,10.24,0,0,1-10.2-10.2v-40.5a10.18,10.18,0,0,1,17.4-7.2,10.05,10.05,0,0,1,3,7.2V289A10.11,10.11,0,0,1,290.65,299.17Z"/></g><g id="_Група_2" data-name="&lt;Група&gt;"><path class="cls-1" d="M32.75,250.38v39.5a9.3,9.3,0,0,1-18.6,0v-39.5a9.27,9.27,0,0,1,9.3-9.21,9,9,0,0,1,6.5,2.71A9.24,9.24,0,0,1,32.75,250.38Z"/><path class="cls-2" d="M23.45,299.17a9.33,9.33,0,0,1-9.3-9.2v-39.5a9.27,9.27,0,0,1,9.3-9.2A9,9,0,0,1,30,244a9.15,9.15,0,0,1,2.7,6.5V290A9.18,9.18,0,0,1,23.45,299.17Z"/></g><g id="_Група_3" data-name="&lt;Група&gt;"><path class="cls-3" d="M310.55,293.67c12,15.1,1.3,37.41-18,37.3l-269.3-1.3c-19.3-.09-29.9-22.59-17.6-37.5l136.2-165a22.93,22.93,0,0,1,35.6.3Z"/><path class="cls-4" d="M177.45,127.38l133.1,166.29c12,15.1,1.3,37.41-18,37.3l-269.3-1.3c-19.3-.09-29.9-22.59-17.6-37.5l136.2-165A22.87,22.87,0,0,1,177.45,127.38Z"/></g><g id="_Група_4" data-name="&lt;Група&gt;"><path class="cls-5" d="M237.05,263.27v87.8a20,20,0,0,1-19.9,19.9H101a20,20,0,0,1-19.9-19.9v-87.8a20,20,0,0,1,19.9-19.9h116.2A20,20,0,0,1,237.05,263.27Z"/><path class="cls-2" d="M217.15,371H101a20,20,0,0,1-19.9-19.9v-87.8a20,20,0,0,1,19.9-19.9h116.2a20,20,0,0,1,19.9,19.9v87.8A20,20,0,0,1,217.15,371Z"/></g><g id="_Група_5" data-name="&lt;Група&gt;"><path class="cls-1" d="M89.35,330.77a31.86,31.86,0,0,1-31.8-31.7v-180a31.88,31.88,0,0,1,31.8-31.8h137.8a31.88,31.88,0,0,1,31.8,31.8V299a31.8,31.8,0,0,1-31.8,31.7l-137.8.1Z"/><path class="cls-2" d="M227.05,330.77H89.35a31.86,31.86,0,0,1-31.8-31.7v-180a31.88,31.88,0,0,1,31.8-31.8h137.8a31.88,31.88,0,0,1,31.8,31.8V299A32,32,0,0,1,227.05,330.77Z"/></g><path class="cls-6" d="M104.55,313.17h0a7.13,7.13,0,0,0-7.1,7.1v30.8a7.13,7.13,0,0,0,7.1,7.1h0a7.13,7.13,0,0,0,7.1-7.1v-30.8A7.13,7.13,0,0,0,104.55,313.17Z"/><path class="cls-6" d="M131.45,313.17h0a7.13,7.13,0,0,0-7.1,7.1v30.8a7.13,7.13,0,0,0,7.1,7.1h0a7.13,7.13,0,0,0,7.1-7.1v-30.8A7.13,7.13,0,0,0,131.45,313.17Z"/><path class="cls-6" d="M158.15,313.17h0a7.13,7.13,0,0,0-7.1,7.1v30.8a7.13,7.13,0,0,0,7.1,7.1h0a7.13,7.13,0,0,0,7.1-7.1v-30.8A7.13,7.13,0,0,0,158.15,313.17Z"/><path class="cls-6" d="M184.85,312.77h0a7.13,7.13,0,0,0-7.1,7.1v30.8a7.12,7.12,0,0,0,7.1,7.1h0a7.13,7.13,0,0,0,7.1-7.1V319.88A7.2,7.2,0,0,0,184.85,312.77Z"/><path class="cls-6" d="M211.45,313h0a7.13,7.13,0,0,0-7.1,7.1v30.8a7.13,7.13,0,0,0,7.1,7.1h0a7.13,7.13,0,0,0,7.1-7.1v-30.8A7.13,7.13,0,0,0,211.45,313Z"/><g id="_Група_6" data-name="&lt;Група&gt;"><path class="cls-3" d="M217.35,340.47H98.15a14.15,14.15,0,0,1-14.1-14.09V74.67A74.46,74.46,0,0,1,158.35.38a73.41,73.41,0,0,1,73.1,73.1v253A14.13,14.13,0,0,1,217.35,340.47Z"/><path class="cls-4" d="M217.35,340.47H98.15a14.15,14.15,0,0,1-14.1-14.09V74.67A74.46,74.46,0,0,1,158.35.38a73.41,73.41,0,0,1,73.1,73.1v253A14.13,14.13,0,0,1,217.35,340.47Z"/></g><g id="_Група_7" data-name="&lt;Група&gt;"><path class="cls-7" d="M108.05,261.38v55.09a26.84,26.84,0,0,1-26.7,26.8h-3.2a26.87,26.87,0,0,1-26.8-26.8V261.38a26.78,26.78,0,0,1,26.8-26.71h3.2A26.76,26.76,0,0,1,108.05,261.38Z"/><path class="cls-2" d="M81.35,343.27h-3.2a26.87,26.87,0,0,1-26.8-26.8V261.38a26.78,26.78,0,0,1,26.8-26.71h3.2a26.76,26.76,0,0,1,26.7,26.71v55.09A26.84,26.84,0,0,1,81.35,343.27Z"/></g><g id="_Група_8" data-name="&lt;Група&gt;"><path class="cls-7" d="M264,261.38v55.09a26.84,26.84,0,0,1-26.7,26.8h-3.2a26.87,26.87,0,0,1-26.8-26.8V261.38a26.78,26.78,0,0,1,26.8-26.71h3.2A26.76,26.76,0,0,1,264,261.38Z"/><path class="cls-2" d="M237.25,343.27h-3.2a26.87,26.87,0,0,1-26.8-26.8V261.38a26.78,26.78,0,0,1,26.8-26.71h3.2A26.76,26.76,0,0,1,264,261.38v55.09A26.84,26.84,0,0,1,237.25,343.27Z"/></g><g id="Shine"><g id="_Група_9" data-name="&lt;Група&gt;"><path class="cls-8" d="M101.75,256.67a1.59,1.59,0,0,1-1.4,1.91,1.54,1.54,0,0,1-1.8-1.41,1.7,1.7,0,0,1,1.4-2,1.58,1.58,0,0,1,1.8,1.1C101.65,256.47,101.65,256.58,101.75,256.67Z"/><path class="cls-8" d="M101.65,256.38h0a1.62,1.62,0,0,0-1.8-1.1,1.72,1.72,0,0,0-1.4,2h-.1c-2.9-8.4-8.4-12.7-17-14.6v-.1h.2a1.63,1.63,0,0,0,1.8-1.6,1.46,1.46,0,0,0-.9-1.5C92.25,241.88,98.15,246.77,101.65,256.38Z"/><path class="cls-8" d="M82.55,239.38a1.34,1.34,0,0,1,.9,1.5,1.63,1.63,0,0,1-1.8,1.59h-.2a1.49,1.49,0,0,1-1.3-1.7,1.69,1.69,0,0,1,1.8-1.6h.2C82.15,239.27,82.35,239.38,82.55,239.38Z"/><path class="cls-8" d="M82.55,239.38c-.2,0-.3-.1-.5-.1C82.15,239.27,82.35,239.38,82.55,239.38Z"/></g></g><g id="Shine-2" data-name="Shine"><g id="_Група_10" data-name="&lt;Група&gt;"><path class="cls-8" d="M257,257.88a1.58,1.58,0,0,1-1.4,1.9,1.62,1.62,0,0,1-1.9-1.4,1.76,1.76,0,0,1,1.4-2,1.51,1.51,0,0,1,1.8,1.09A.77.77,0,0,1,257,257.88Z"/><path class="cls-8" d="M257,257.58h0a1.63,1.63,0,0,0-1.8-1.1,1.72,1.72,0,0,0-1.4,2h-.1c-2.9-8.4-8.4-12.7-17-14.6v-.1h.2a1.63,1.63,0,0,0,1.8-1.6,1.46,1.46,0,0,0-.9-1.5C247.55,243.17,253.35,248,257,257.58Z"/><path class="cls-8" d="M237.75,240.67a1.36,1.36,0,0,1,.9,1.5,1.63,1.63,0,0,1-1.8,1.6h-.2a1.5,1.5,0,0,1-1.3-1.7,1.69,1.69,0,0,1,1.8-1.6h.2C237.45,240.58,237.55,240.58,237.75,240.67Z"/><path class="cls-8" d="M237.75,240.67c-.2,0-.3-.09-.5-.09A1,1,0,0,1,237.75,240.67Z"/></g></g><path d="M157.75,201.67h0a41.23,41.23,0,0,1-41.1-41.1V84.47a41.23,41.23,0,0,1,41.1-41.1h0a41.23,41.23,0,0,1,41.1,41.1v76.1A41.23,41.23,0,0,1,157.75,201.67Z"/><circle class="cls-9" cx="169.65" cy="79.67" r="11.3"/><circle class="cls-9" cx="155.95" cy="100.38" r="4.3"/><g id="Shine-3" data-name="Shine"><g id="_Група_11" data-name="&lt;Група&gt;"><path class="cls-8" d="M160.75,24.17c-2-.29-3.6-1.7-3.4-3.9.2-2.39,2.3-3.39,4.6-3.29a2.2,2.2,0,0,1,.8.1c2,.4,3.6,1.6,3.5,3.8-.1,2.5-2.6,3.5-4.9,3.39C161.15,24.27,161,24.17,160.75,24.17Z"/><path class="cls-8" d="M211.15,65.47c-13.7-27-21.3-32.7-50.4-41l.1-.3c.2,0,.4.1.6.1,2.3.21,4.8-.79,4.9-3.39.1-2.21-1.6-3.4-3.5-3.8h0c30.5,8.5,42.2,17.2,56.4,45.6h-.1a4.51,4.51,0,0,0-4.4-2,3.59,3.59,0,0,0-3.2,4.6Z"/><path class="cls-8" d="M211.45,65.38c-.5-2.4.8-4.4,3.2-4.61a4.33,4.33,0,0,1,4.4,2,3.33,3.33,0,0,1,.5,1.5c.5,2.4-.9,4.11-3.3,4.4A4,4,0,0,1,211.45,65.38Z"/></g></g><path id="path2839" class="cls-10" d="M132.75,234.67v52.1a9.27,9.27,0,0,0,5.5,8.4l19.2,8.5,19.2-8.5a9.1,9.1,0,0,0,5.5-8.4v-52.1Z"/><path id="path7710" class="cls-11" d="M133.45,235.47v51a9,9,0,0,0,5.4,8.2l18.6,8.3,18.6-8.3a9,9,0,0,0,5.4-8.2v-51Z"/><path id="path7306" class="cls-10" d="M157.45,239.17a9.09,9.09,0,0,0-2.3,5.91c.1,5,.7,10,.8,15,.1,4.7-1.3,9-3,13.3-.6,1.2-1.2,2.29-1.8,3.5l-1.8-.41A3,3,0,0,1,147,273a3,3,0,0,1,2.9-2.4l.7.1-1.5-12.2a18.91,18.91,0,0,0-7.4-13.3c-.7-.5-1.5-1-2.3-1.5v43.5h10a17.12,17.12,0,0,0,6.1,10.1,5.78,5.78,0,0,1,1.8,2,7,7,0,0,1,1.8-2,16.37,16.37,0,0,0,6.1-10.1h10v-43.5a16.69,16.69,0,0,0-2.3,1.5,18.58,18.58,0,0,0-7.4,13.3l-1.5,12.2.7-.09a3,3,0,0,1,.5,5.9l-1.8.4c-.6-1.2-1.2-2.3-1.8-3.5-1.7-4.3-3.1-8.7-3-13.3.1-5,.7-10,.8-15A7.13,7.13,0,0,0,157.45,239.17Zm-15,10.71a16,16,0,0,1,3.6,8.2l1.2,10.09a6.11,6.11,0,0,0-3.1,3.91h-1.7Zm30,0v22.2h-1.7a6.13,6.13,0,0,0-3.1-3.91l1.2-10.09A16.43,16.43,0,0,1,172.45,249.88Zm-15,20.29a35.66,35.66,0,0,0,3.3,7.5,7,7,0,0,0-3.3,2.21,7,7,0,0,0-3.3-2.21A31.28,31.28,0,0,0,157.45,270.17Zm-15,4.91h1.7a6.09,6.09,0,0,0,4.2,4.3l1.4.29a16.24,16.24,0,0,0-.6,4.41h-6.8v-9Zm28.3,0h1.7v9h-6.8a16.24,16.24,0,0,0-.6-4.41l1.4-.29a5.89,5.89,0,0,0,4.3-4.3Zm-18,5.3a3.75,3.75,0,0,1,3.2,3.7h-3.8A15.87,15.87,0,0,1,152.75,280.38Zm9.4,0a15,15,0,0,1,.5,3.7H159A3.83,3.83,0,0,1,162.15,280.38Zm-9.6,6.79H156v6.3A13,13,0,0,1,152.55,287.17Zm6.4,0h3.4a14.26,14.26,0,0,1-3.4,6.3Z"/></g></g></svg>