<svg xmlns="http://www.w3.org/2000/svg" width="1808" height="988" viewBox="0 0 1808 988">
  <g id="stars" transform="translate(5)">
    <circle id="Oval_6" data-name="Oval 6" cx="12.5" cy="12.5" r="12.5" transform="translate(510 0)" fill="#fcf5a2"/>
    <circle id="Oval_6_Copy_11" data-name="Oval 6 Copy 11" cx="12.5" cy="12.5" r="12.5" transform="translate(79 92)" fill="#fcf5a2"/>
    <circle id="Oval_6_Copy_3" data-name="Oval 6 Copy 3" cx="12.5" cy="12.5" r="12.5" transform="translate(727 13)" fill="none" stroke="#fcf5a2" stroke-miterlimit="10" stroke-width="10"/>
    <circle id="Oval_6_Copy_4" data-name="Oval 6 Copy 4" cx="12.5" cy="12.5" r="12.5" transform="translate(1397 209)" fill="none" stroke="#fcf5a2" stroke-miterlimit="10" stroke-width="10"/>
    <circle id="Oval_6_Copy_15" data-name="Oval 6 Copy 15" cx="12.5" cy="12.5" r="12.5" transform="translate(1773 457)" fill="none" stroke="#fcf5a2" stroke-miterlimit="10" stroke-width="10"/>
    <circle id="Oval_6_Copy_13" data-name="Oval 6 Copy 13" cx="12.5" cy="12.5" r="12.5" transform="translate(0 683)" fill="none" stroke="#fcf5a2" stroke-miterlimit="10" stroke-width="10"/>
    <circle id="Oval_6_Copy_19" data-name="Oval 6 Copy 19" cx="12.5" cy="12.5" r="12.5" transform="translate(1526 921)" fill="none" stroke="#fcf5a2" stroke-miterlimit="10" stroke-width="10"/>
    <circle id="Oval_6_Copy_8" data-name="Oval 6 Copy 8" cx="12.5" cy="12.5" r="12.5" transform="translate(495 875)" fill="none" stroke="#fcf5a2" stroke-miterlimit="10" stroke-width="10"/>
    <circle id="Oval_6_Copy" data-name="Oval 6 Copy" cx="9.5" cy="9.5" r="9.5" transform="translate(610 92)" fill="#fcf5a2"/>
    <circle id="Oval_6_Copy_14" data-name="Oval 6 Copy 14" cx="9.5" cy="9.5" r="9.5" transform="translate(25 383)" fill="#fcf5a2"/>
    <circle id="Oval_6_Copy_5" data-name="Oval 6 Copy 5" cx="9.5" cy="9.5" r="9.5" transform="translate(1279 38)" fill="#fcf5a2"/>
    <circle id="Oval_6_Copy_16" data-name="Oval 6 Copy 16" cx="9.5" cy="9.5" r="9.5" transform="translate(1676 98)" fill="#fcf5a2"/>
    <circle id="Oval_6_Copy_18" data-name="Oval 6 Copy 18" cx="9.5" cy="9.5" r="9.5" transform="translate(828 234)" fill="#fcf5a2"/>
    <circle id="Oval_6_Copy_12" data-name="Oval 6 Copy 12" cx="9.5" cy="9.5" r="9.5" transform="translate(1776 190)" fill="#fcf5a2"/>
    <circle id="Oval_6_Copy_6" data-name="Oval 6 Copy 6" cx="6" cy="6" r="6" transform="translate(1551 249)" fill="#fcf5a2"/>
    <circle id="Oval_6_Copy_7" data-name="Oval 6 Copy 7" cx="8.5" cy="8.5" r="8.5" transform="translate(1435 282)" fill="#fcf5a2"/>
    <circle id="Oval_6_Copy_9" data-name="Oval 6 Copy 9" cx="8.5" cy="8.5" r="8.5" transform="translate(535 971)" fill="#fcf5a2"/>
    <circle id="Oval_6_Copy_17" data-name="Oval 6 Copy 17" cx="8.5" cy="8.5" r="8.5" transform="translate(940 858)" fill="#fcf5a2"/>
    <circle id="Oval_6_Copy_10" data-name="Oval 6 Copy 10" cx="5" cy="5" r="5" transform="translate(320 911)" fill="#fcf5a2"/>
    <circle id="Oval_6_Copy_2" data-name="Oval 6 Copy 2" cx="5" cy="5" r="5" transform="translate(620 25)" fill="#fcf5a2"/>
  </g>
</svg>
